<svg width="58" height="80" viewBox="0 0 58 80" fill="none" xmlns="http://www.w3.org/2000/svg">
<path d="M0.330933 65.1564V56.471H3.81002C4.44927 56.471 4.98245 56.5658 5.40956 56.7552C5.83667 56.9446 6.1577 57.2075 6.37267 57.544C6.58764 57.8776 6.69513 58.2621 6.69513 58.6975C6.69513 59.0368 6.62724 59.3351 6.49147 59.5923C6.3557 59.8468 6.16902 60.056 5.93142 60.22C5.69665 60.3811 5.42794 60.4956 5.12529 60.5635V60.6483C5.45623 60.6625 5.76595 60.7558 6.05446 60.9282C6.3458 61.1007 6.58198 61.3424 6.76301 61.6534C6.94404 61.9616 7.03455 62.3291 7.03455 62.756C7.03455 63.2169 6.91999 63.6283 6.69088 63.9901C6.4646 64.3492 6.12942 64.6333 5.68534 64.8426C5.24126 65.0518 4.69394 65.1564 4.04338 65.1564H0.330933ZM2.16806 63.6551H3.66577C4.17773 63.6551 4.5511 63.5576 4.78587 63.3625C5.02064 63.1646 5.13802 62.9016 5.13802 62.5737C5.13802 62.3334 5.08003 62.1213 4.96407 61.9375C4.84809 61.7538 4.68263 61.6096 4.46766 61.505C4.25552 61.4004 4.00236 61.3481 3.7082 61.3481H2.16806V63.6551ZM2.16806 60.1055H3.53C3.78174 60.1055 4.00519 60.0617 4.20036 59.974C4.39836 59.8835 4.55393 59.7563 4.66707 59.5923C4.78304 59.4284 4.84102 59.2319 4.84102 59.0029C4.84102 58.689 4.7293 58.436 4.50584 58.2437C4.28522 58.0515 3.97125 57.9554 3.56394 57.9554H2.16806V60.1055Z" fill="black"/>
<path d="M8.19601 65.1564V58.6424H10.0034V65.1564H8.19601ZM9.10397 57.8027C8.83526 57.8027 8.60474 57.7136 8.4124 57.5355C8.22289 57.3546 8.12813 57.1383 8.12813 56.8866C8.12813 56.6378 8.22289 56.4244 8.4124 56.2463C8.60474 56.0653 8.83526 55.9749 9.10397 55.9749C9.37268 55.9749 9.60179 56.0653 9.7913 56.2463C9.98364 56.4244 10.0798 56.6378 10.0798 56.8866C10.0798 57.1383 9.98364 57.3546 9.7913 57.5355C9.60179 57.7136 9.37268 57.8027 9.10397 57.8027Z" fill="black"/>
<path d="M11.4852 65.1564V56.471H13.2927V59.7365H13.3478C13.427 59.5612 13.5416 59.3831 13.6915 59.2022C13.8442 59.0184 14.0422 58.8657 14.2855 58.7442C14.5316 58.6198 14.837 58.5576 15.2019 58.5576C15.6771 58.5576 16.1155 58.682 16.5172 58.9308C16.9188 59.1767 17.2399 59.5485 17.4803 60.0461C17.7207 60.5409 17.8409 61.1615 17.8409 61.9079C17.8409 62.6345 17.7236 63.248 17.4888 63.7484C17.2569 64.246 16.9401 64.6234 16.5384 64.8807C16.1396 65.1352 15.6927 65.2624 15.1977 65.2624C14.8469 65.2624 14.5485 65.2045 14.3025 65.0885C14.0592 64.9726 13.8598 64.827 13.7042 64.6517C13.5487 64.4736 13.4299 64.2941 13.3478 64.1131H13.2672V65.1564H11.4852ZM13.2545 61.8994C13.2545 62.2867 13.3082 62.6246 13.4157 62.913C13.5232 63.2013 13.6788 63.4261 13.8824 63.5873C14.0861 63.7456 14.3336 63.8247 14.6249 63.8247C14.9191 63.8247 15.168 63.7442 15.3716 63.583C15.5753 63.419 15.7294 63.1929 15.8341 62.9045C15.9416 62.6133 15.9953 62.2782 15.9953 61.8994C15.9953 61.5234 15.943 61.1926 15.8383 60.907C15.7337 60.6215 15.5795 60.3981 15.3759 60.237C15.1722 60.0758 14.9219 59.9952 14.6249 59.9952C14.3307 59.9952 14.0818 60.073 13.8782 60.2285C13.6774 60.384 13.5232 60.6045 13.4157 60.89C13.3082 61.1756 13.2545 61.512 13.2545 61.8994Z" fill="black"/>
<path d="M20.8544 56.471V65.1564H19.047V56.471H20.8544Z" fill="black"/>
<path d="M22.3022 65.1564V58.6424H24.1097V65.1564H22.3022ZM23.2102 57.8027C22.9415 57.8027 22.711 57.7136 22.5186 57.5355C22.3291 57.3546 22.2344 57.1383 22.2344 56.8866C22.2344 56.6378 22.3291 56.4244 22.5186 56.2463C22.711 56.0653 22.9415 55.9749 23.2102 55.9749C23.4789 55.9749 23.708 56.0653 23.8975 56.2463C24.0899 56.4244 24.186 56.6378 24.186 56.8866C24.186 57.1383 24.0899 57.3546 23.8975 57.5355C23.708 57.7136 23.4789 57.8027 23.2102 57.8027Z" fill="black"/>
<path d="M28.502 65.2836C27.843 65.2836 27.273 65.1437 26.7922 64.8638C26.3142 64.581 25.945 64.1881 25.6848 63.6848C25.4246 63.1787 25.2945 62.5921 25.2945 61.9248C25.2945 61.2519 25.4246 60.6639 25.6848 60.1606C25.945 59.6545 26.3142 59.2615 26.7922 58.9816C27.273 58.6989 27.843 58.5576 28.502 58.5576C29.1611 58.5576 29.7296 58.6989 30.2076 58.9816C30.6885 59.2615 31.059 59.6545 31.3192 60.1606C31.5795 60.6639 31.7096 61.2519 31.7096 61.9248C31.7096 62.5921 31.5795 63.1787 31.3192 63.6848C31.059 64.1881 30.6885 64.581 30.2076 64.8638C29.7296 65.1437 29.1611 65.2836 28.502 65.2836ZM28.5105 63.8841C28.8103 63.8841 29.0607 63.7993 29.2615 63.6297C29.4623 63.4572 29.6136 63.2225 29.7155 62.9257C29.8201 62.6288 29.8725 62.291 29.8725 61.9121C29.8725 61.5333 29.8201 61.1954 29.7155 60.8985C29.6136 60.6017 29.4623 60.367 29.2615 60.1945C29.0607 60.0221 28.8103 59.9358 28.5105 59.9358C28.2079 59.9358 27.9533 60.0221 27.7468 60.1945C27.5432 60.367 27.389 60.6017 27.2843 60.8985C27.1825 61.1954 27.1316 61.5333 27.1316 61.9121C27.1316 62.291 27.1825 62.6288 27.2843 62.9257C27.389 63.2225 27.5432 63.4572 27.7468 63.6297C27.9533 63.7993 28.2079 63.8841 28.5105 63.8841Z" fill="black"/>
<path d="M36.3512 58.6424V59.9995H32.4266V58.6424H36.3512ZM33.3176 57.0817H35.125V63.1547C35.125 63.3215 35.1505 63.4515 35.2014 63.5448C35.2523 63.6353 35.323 63.6989 35.4135 63.7357C35.5069 63.7724 35.6144 63.7908 35.736 63.7908C35.8209 63.7908 35.9057 63.7838 35.9906 63.7696C36.0754 63.7527 36.1405 63.7399 36.1857 63.7314L36.47 65.0758C36.3795 65.1041 36.2522 65.1366 36.0881 65.1734C35.9241 65.2129 35.7247 65.237 35.4899 65.2454C35.0543 65.2624 34.6725 65.2045 34.3444 65.0716C34.0191 64.9387 33.7659 64.7323 33.5849 64.4524C33.4039 64.1725 33.3148 63.8191 33.3176 63.3922V57.0817Z" fill="black"/>
<path d="M40.4285 65.2836C39.7582 65.2836 39.1811 65.1479 38.6975 64.8765C38.2166 64.6022 37.8461 64.2149 37.5859 63.7145C37.3256 63.2112 37.1955 62.6161 37.1955 61.9291C37.1955 61.259 37.3256 60.6709 37.5859 60.1649C37.8461 59.6588 38.2124 59.2644 38.6847 58.9816C39.1599 58.6989 39.7172 58.5576 40.3564 58.5576C40.7863 58.5576 41.1866 58.6268 41.5571 58.7654C41.9305 58.9011 42.2558 59.106 42.533 59.3803C42.813 59.6545 43.0308 59.9995 43.1863 60.4151C43.3419 60.8278 43.4197 61.3113 43.4197 61.8655V62.3616H37.9168V61.242H41.7183C41.7183 60.9819 41.6618 60.7515 41.5486 60.5508C41.4355 60.35 41.2785 60.1931 41.0777 60.08C40.8797 59.9641 40.6492 59.9062 40.3861 59.9062C40.1117 59.9062 39.8685 59.9698 39.6563 60.097C39.447 60.2214 39.283 60.3896 39.1642 60.6017C39.0454 60.8109 38.9846 61.0441 38.9817 61.3014V62.3659C38.9817 62.6882 39.0411 62.9667 39.1599 63.2013C39.2816 63.436 39.4527 63.6169 39.6733 63.7442C39.8939 63.8714 40.1556 63.935 40.4582 63.935C40.659 63.935 40.8429 63.9067 41.0098 63.8502C41.1767 63.7936 41.3195 63.7088 41.4383 63.5957C41.5571 63.4826 41.6476 63.3441 41.7099 63.1801L43.3815 63.2904C43.2967 63.6919 43.1227 64.0424 42.8596 64.3421C42.5994 64.639 42.2628 64.8708 41.8499 65.0376C41.4397 65.2016 40.9659 65.2836 40.4285 65.2836Z" fill="black"/>
<path d="M47.5437 65.2836C46.8762 65.2836 46.302 65.1423 45.8211 64.8595C45.3431 64.574 44.9754 64.1782 44.718 63.6721C44.4634 63.166 44.3361 62.5836 44.3361 61.9248C44.3361 61.2576 44.4648 60.6723 44.7222 60.1691C44.9825 59.663 45.3516 59.2686 45.8296 58.9859C46.3076 58.7003 46.8762 58.5576 47.5352 58.5576C48.1037 58.5576 48.6016 58.6608 49.0287 58.8671C49.4558 59.0735 49.7938 59.3633 50.0427 59.7365C50.2916 60.1097 50.4288 60.548 50.4543 61.0512H48.7486C48.7006 60.7261 48.5733 60.4645 48.3668 60.2666C48.1631 60.0659 47.8958 59.9655 47.5649 59.9655C47.2849 59.9655 47.0402 60.0419 46.8309 60.1945C46.6244 60.3444 46.4632 60.5635 46.3472 60.8519C46.2313 61.1403 46.1733 61.4894 46.1733 61.8994C46.1733 62.315 46.2298 62.6684 46.343 62.9596C46.459 63.2508 46.6216 63.4728 46.8309 63.6254C47.0402 63.7781 47.2849 63.8544 47.5649 63.8544C47.7714 63.8544 47.9567 63.812 48.1207 63.7272C48.2876 63.6424 48.4248 63.5194 48.5323 63.3582C48.6426 63.1943 48.7147 62.9978 48.7486 62.7688H50.4543C50.426 63.2664 50.2902 63.7046 50.0469 64.0834C49.8065 64.4595 49.4742 64.7535 49.0499 64.9655C48.6256 65.1776 48.1235 65.2836 47.5437 65.2836Z" fill="black"/>
<path d="M53.4698 65.2794C53.054 65.2794 52.6835 65.2073 52.3582 65.0631C52.0329 64.9161 51.7755 64.6998 51.586 64.4142C51.3993 64.1259 51.306 63.7668 51.306 63.337C51.306 62.9752 51.3725 62.6712 51.5054 62.4253C51.6383 62.1793 51.8194 61.9814 52.0485 61.8315C52.2776 61.6817 52.5378 61.5686 52.8292 61.4923C53.1233 61.4159 53.4316 61.3622 53.7541 61.3311C54.1331 61.2915 54.4386 61.2548 54.6705 61.2208C54.9025 61.1841 55.0708 61.1304 55.1754 61.0597C55.2801 60.989 55.3324 60.8844 55.3324 60.7459V60.7204C55.3324 60.4518 55.2475 60.244 55.0778 60.097C54.9109 59.95 54.6734 59.8765 54.365 59.8765C54.0398 59.8765 53.781 59.9486 53.5886 60.0928C53.3963 60.2341 53.269 60.4122 53.2068 60.6271L51.5351 60.4914C51.62 60.0956 51.7868 59.7535 52.0358 59.4651C52.2847 59.1739 52.6057 58.9505 52.9989 58.795C53.3949 58.6367 53.8531 58.5576 54.3735 58.5576C54.7356 58.5576 55.0821 58.6 55.413 58.6848C55.7468 58.7696 56.0424 58.9011 56.2998 59.0792C56.56 59.2573 56.7651 59.4863 56.915 59.7662C57.0649 60.0433 57.1398 60.3755 57.1398 60.7628V65.1564H55.4257V64.2531H55.3748C55.2702 64.4566 55.1302 64.6362 54.9548 64.7917C54.7794 64.9443 54.5687 65.0645 54.3226 65.1521C54.0765 65.237 53.7923 65.2794 53.4698 65.2794ZM53.9874 64.0325C54.2533 64.0325 54.4881 63.9802 54.6917 63.8756C54.8954 63.7682 55.0552 63.624 55.1712 63.4431C55.2871 63.2621 55.3451 63.0571 55.3451 62.8281V62.1369C55.2886 62.1736 55.2108 62.2076 55.1118 62.2387C55.0156 62.2669 54.9067 62.2938 54.7851 62.3192C54.6635 62.3418 54.5418 62.3631 54.4202 62.3828C54.2986 62.3998 54.1883 62.4154 54.0893 62.4295C53.8771 62.4606 53.6919 62.5101 53.5335 62.5779C53.3751 62.6458 53.252 62.7377 53.1643 62.8536C53.0766 62.9667 53.0328 63.108 53.0328 63.2777C53.0328 63.5236 53.1219 63.7117 53.3001 63.8417C53.4811 63.9689 53.7102 64.0325 53.9874 64.0325Z" fill="black"/>
<path d="M0 70.386V68.872H7.13638V70.386H4.47615V77.5574H2.66023V70.386H0Z" fill="#2F80ED"/>
<path d="M7.60097 77.5574V71.0434H9.35324V72.1799H9.42112C9.53992 71.7756 9.73933 71.4703 10.0194 71.2639C10.2994 71.0547 10.6218 70.9501 10.9867 70.9501C11.0772 70.9501 11.1748 70.9557 11.2795 70.967C11.3841 70.9783 11.4761 70.9939 11.5552 71.0137V72.6167C11.4704 72.5913 11.353 72.5687 11.2031 72.5489C11.0532 72.5291 10.916 72.5192 10.7915 72.5192C10.5257 72.5192 10.2881 72.5772 10.0788 72.6931C9.87227 72.8062 9.70822 72.9645 9.58659 73.1681C9.46779 73.3716 9.4084 73.6063 9.4084 73.8721V77.5574H7.60097Z" fill="#2F80ED"/>
<path d="M12.4897 77.5574V71.0434H14.2972V77.5574H12.4897ZM13.3977 70.2037C13.129 70.2037 12.8984 70.1146 12.7061 69.9365C12.5166 69.7556 12.4218 69.5393 12.4218 69.2876C12.4218 69.0388 12.5166 68.8254 12.7061 68.6473C12.8984 68.4663 13.129 68.3759 13.3977 68.3759C13.6664 68.3759 13.8955 68.4663 14.085 68.6473C14.2774 68.8254 14.3735 69.0388 14.3735 69.2876C14.3735 69.5393 14.2774 69.7556 14.085 69.9365C13.8955 70.1146 13.6664 70.2037 13.3977 70.2037Z" fill="#2F80ED"/>
<path d="M15.745 80.0001V71.0434H17.527V72.1375H17.6076C17.6868 71.9622 17.8013 71.7841 17.9513 71.6032C18.104 71.4194 18.302 71.2667 18.5453 71.1452C18.7913 71.0208 19.0968 70.9586 19.4617 70.9586C19.9369 70.9586 20.3753 71.083 20.777 71.3318C21.1786 71.5777 21.4997 71.9495 21.7401 72.4471C21.9805 72.9419 22.1007 73.5625 22.1007 74.3089C22.1007 75.0355 21.9833 75.649 21.7486 76.1494C21.5166 76.647 21.1998 77.0245 20.7982 77.2817C20.3994 77.5362 19.9524 77.6634 19.4575 77.6634C19.1067 77.6634 18.8083 77.6055 18.5622 77.4895C18.319 77.3736 18.1196 77.228 17.964 77.0527C17.8084 76.8746 17.6896 76.6951 17.6076 76.5141H17.5524V80.0001H15.745ZM17.5143 74.3004C17.5143 74.6877 17.568 75.0256 17.6755 75.314C17.783 75.6023 17.9385 75.8271 18.1422 75.9883C18.3458 76.1466 18.5933 76.2257 18.8847 76.2257C19.1788 76.2257 19.4278 76.1452 19.6314 75.984C19.8351 75.82 19.9892 75.5939 20.0939 75.3055C20.2014 75.0143 20.2551 74.6792 20.2551 74.3004C20.2551 73.9244 20.2028 73.5936 20.0981 73.308C19.9935 73.0225 19.8393 72.7991 19.6357 72.638C19.432 72.4768 19.1817 72.3962 18.8847 72.3962C18.5905 72.3962 18.3416 72.474 18.1379 72.6295C17.9371 72.785 17.783 73.0055 17.6755 73.291C17.568 73.5766 17.5143 73.913 17.5143 74.3004Z" fill="#2F80ED"/>
<path d="M25.1131 68.872V77.5574H23.3057V68.872H25.1131Z" fill="#2F80ED"/>
<path d="M29.5309 77.6846C28.8605 77.6846 28.2835 77.5489 27.7998 77.2775C27.319 77.0032 26.9485 76.6159 26.6882 76.1155C26.428 75.6122 26.2979 75.0171 26.2979 74.3301C26.2979 73.66 26.428 73.0719 26.6882 72.5659C26.9485 72.0598 27.3148 71.6654 27.7871 71.3826C28.2623 71.0999 28.8195 70.9586 29.4588 70.9586C29.8887 70.9586 30.289 71.0278 30.6595 71.1664C31.0329 71.3021 31.3581 71.507 31.6353 71.7813C31.9154 72.0555 32.1332 72.4005 32.2887 72.8161C32.4443 73.2288 32.5221 73.7123 32.5221 74.2665V74.7626H27.0192V73.643H30.8207C30.8207 73.3829 30.7641 73.1525 30.651 72.9518C30.5379 72.751 30.3809 72.5941 30.1801 72.481C29.9821 72.3651 29.7515 72.3072 29.4885 72.3072C29.2141 72.3072 28.9709 72.3708 28.7587 72.498C28.5494 72.6224 28.3854 72.7906 28.2666 73.0027C28.1478 73.2119 28.0869 73.4451 28.0841 73.7024V74.7669C28.0841 75.0892 28.1435 75.3677 28.2623 75.6023C28.3839 75.837 28.5551 76.0179 28.7757 76.1452C28.9963 76.2724 29.258 76.336 29.5606 76.336C29.7614 76.336 29.9453 76.3077 30.1122 76.2512C30.2791 76.1946 30.4219 76.1098 30.5407 75.9967C30.6595 75.8836 30.75 75.7451 30.8122 75.5811L32.4839 75.6914C32.399 76.0929 32.2251 76.4434 31.962 76.7431C31.7018 77.04 31.3652 77.2718 30.9522 77.4386C30.5421 77.6026 30.0683 77.6846 29.5309 77.6846Z" fill="#2F80ED"/>
<path fill-rule="evenodd" clip-rule="evenodd" d="M0 4.55408L18.97 11.0282V39.5685L0 33.0944V4.55408ZM2.0168 7.37254V31.6525L16.9532 36.75V12.4701L2.0168 7.37254Z" fill="black"/>
<path fill-rule="evenodd" clip-rule="evenodd" d="M9.11316 0L28.0832 6.47417V35.0144L9.11316 28.5403V0ZM11.13 2.81847V27.0984L26.0664 32.196V7.91603L11.13 2.81847Z" fill="black"/>
</svg>
